<svg width="60" height="76" viewBox="0 0 60 76" fill="none" xmlns="http://www.w3.org/2000/svg">
<path d="M59.308 36.2002C59.509 36.2002 59.6723 36.3634 59.6723 36.5645V58.6006C59.6723 64.4615 58.5151 68.7735 56.2006 71.5361C53.886 74.2614 50.8616 75.624 47.1284 75.624C44.7764 75.624 42.7788 75.4185 41.1362 75.0078C39.4938 74.5599 37.9445 73.7577 36.4887 72.6006C33.5021 70.286 32.0083 65.619 32.0082 58.6006V38.5244C32.0082 38.4657 32.0006 38.4738 32.0048 38.4161C32.0938 39.4508 33.1078 40.2002 34.3334 40.2002C35.5523 40.2001 36.5594 39.224 36.6577 38.1973C36.6612 38.2495 36.6567 38.4712 36.6567 38.5244V58.5439C36.6567 65.3385 37.6825 69.875 39.7358 72.1523C40.781 73.2722 41.864 74.0375 42.9838 74.4482C44.1411 74.8589 45.5231 75.0645 47.1284 75.0645C50.7123 75.0644 53.5688 73.7578 55.6967 71.1445C57.862 68.4939 58.9438 64.2932 58.9438 58.5439V36.5645C58.9438 36.3635 59.1071 36.2003 59.308 36.2002ZM30.6684 0C31.0352 0.000169222 31.3465 0.270566 31.3979 0.633789L36.5297 36.9199C36.6081 37.474 36.6628 37.8835 36.6577 38.1973C36.6558 37.0941 35.6162 36.2003 34.3334 36.2002C33.2855 36.2002 31.8368 36.9928 32.0048 38.4161C32.0121 38.4731 31.998 38.363 32.0048 38.4161L29.4716 16.9601C29.0289 13.4621 28.8024 11.4968 28.0043 11.4219C27.2063 11.3476 26.6639 13.0259 25.5795 16.3809L18.4262 38.5117C18.2936 38.9219 17.9119 39.2001 17.4809 39.2002C17.0745 39.2002 16.7089 38.9525 16.558 38.5752L7.3305 15.4922C6.17104 12.5918 5.59053 11.1409 4.82074 11.2412C4.05116 11.3422 3.86339 12.8935 3.48773 15.9941L0.714293 38.8848C0.692515 39.0645 0.539853 39.2 0.358824 39.2002C0.141688 39.2002 -0.0260601 39.0081 0.00335556 38.793L5.20746 0.735352C5.26506 0.314122 5.62508 0 6.05023 0C6.4186 0.000163508 6.74509 0.237492 6.85882 0.587891L16.5209 30.3574C17.3061 32.7764 17.6991 33.9855 18.4262 33.9854C19.1534 33.9847 19.5447 32.7749 20.3266 30.3545L29.9672 0.509766C30.0656 0.20588 30.349 0 30.6684 0Z" fill="url(#paint0_linear_4032_78)"/>
<defs>
<linearGradient id="paint0_linear_4032_78" x1="12.0005" y1="23.2002" x2="68.2363" y2="84.2595" gradientUnits="userSpaceOnUse">
<stop stop-color="#215182"/>
<stop offset="1" stop-color="white"/>
</linearGradient>
</defs>
</svg>
